<svg xmlns="http://www.w3.org/2000/svg" viewBox="0 0 1000 800" width="100%" height="100%">
    <defs>
        <marker id="arr2" viewBox="0 0 10 10" refX="10" refY="5" markerWidth="6" markerHeight="6" orient="auto-start-reverse">
            <path d="M 0 0 L 10 5 L 0 10 z" fill="#334155" />
        </marker>
    </defs>
    <style>
        .t { font-family: 'Arial', sans-serif; font-size: 16px; font-weight: bold; text-anchor: middle; }
        .lane { font-family: 'Arial', sans-serif; font-size: 14px; font-weight: bold; fill: #334155; text-anchor: middle; }
        .box { fill: #f8fafc; stroke: #334155; stroke-width: 1.5; rx: 8; }
        .txt { font-family: 'Arial', sans-serif; font-size: 12px; text-anchor: middle; }
    </style>
    <text x="500" y="30" class="t">2. DETAILNÍ ACTIVITY DIAGRAM: ŽIVOTNÍ CYKLUS ZÁPASU</text>
    <line x1="330" y1="60" x2="330" y2="750" stroke="#94a3b8" stroke-width="1.5"/>
    <line x1="660" y1="60" x2="660" y2="750" stroke="#94a3b8" stroke-width="1.5"/>
    <text x="165" y="80" class="lane">Hráč (Iniciátor)</text>
    <text x="495" y="80" class="lane">Systém FoosLib</text>
    <text x="830" y="80" class="lane">Soupeř (Oponent)</text>

    <circle cx="165" cy="120" r="10" fill="#1e293b"/><line x1="165" y1="130" x2="165" y2="160" stroke="#334155" stroke-width="1.5" marker-end="url(#arr2)"/>
    <rect x="65" y="160" width="200" height="40" class="box"/><text x="165" y="184" class="txt">Zadat skóre, délku, hráče</text>
    <line x1="265" y1="180" x2="395" y2="180" stroke="#334155" stroke-width="1.5" marker-end="url(#arr2)"/>
    
    <rect x="395" y="160" width="200" height="40" class="box"/><text x="495" y="184" class="txt">Uložit s flagem "Čekající"</text>
    <line x1="495" y1="200" x2="495" y2="230" stroke="#334155" stroke-width="1.5" marker-end="url(#arr2)"/>
    <rect x="395" y="230" width="200" height="40" class="box"/><text x="495" y="254" class="txt">Odeslat notifikaci oponentovi</text>
    <line x1="595" y1="250" x2="730" y2="250" stroke="#334155" stroke-width="1.5" marker-end="url(#arr2)"/>

    <rect x="730" y="230" width="200" height="40" class="box"/><text x="830" y="254" class="txt">Přezkoumat zadaná data</text>
    <line x1="830" y1="270" x2="830" y2="310" stroke="#334155" stroke-width="1.5" marker-end="url(#arr2)"/>
    <polygon points="830,310 870,340 830,370 790,340" fill="#f8fafc" stroke="#334155" stroke-width="1.5"/>
    <text x="880" y="345" class="txt">[Ne]</text><text x="760" y="330" class="txt">[Souhlasí]</text>

    <line x1="830" y1="370" x2="830" y2="670" stroke="#334155" stroke-width="1.5" marker-end="url(#arr2)"/>
    <line x1="830" y1="670" x2="595" y2="670" stroke="#334155" stroke-width="1.5"/>
    <rect x="395" y="650" width="200" height="40" class="box" stroke="#ef4444"/><text x="495" y="674" class="txt" fill="#ef4444">Logovat spor k řešení Adminem</text>

    <line x1="790" y1="340" x2="595" y2="340" stroke="#334155" stroke-width="1.5" marker-end="url(#arr2)"/>
    <rect x="395" y="320" width="200" height="40" class="box"/><text x="495" y="344" class="txt">Označit jako ověřené</text>
    <line x1="495" y1="360" x2="495" y2="400" stroke="#334155" stroke-width="1.5" marker-end="url(#arr2)"/>
    
    <rect x="395" y="400" width="200" height="40" class="box"/><text x="495" y="424" class="txt">Přepočítat ELO / Žebříčky</text>
    <line x1="495" y1="440" x2="495" y2="480" stroke="#334155" stroke-width="1.5" marker-end="url(#arr2)"/>

    <rect x="395" y="480" width="200" height="40" class="box"/><text x="495" y="504" class="txt">Ověřit podmínky Achievementů</text>
    <line x1="495" y1="520" x2="495" y2="560" stroke="#334155" stroke-width="1.5" marker-end="url(#arr2)"/>

    <rect x="395" y="560" width="200" height="40" class="box"/><text x="495" y="584" class="txt">Publikovat do Sociálního Feedu</text>
    <line x1="495" y1="600" x2="495" y2="650" stroke="#334155" stroke-width="1.5" marker-end="url(#arr2)"/>
    
    <circle cx="495" cy="710" r="10" fill="none" stroke="#1e293b" stroke-width="2"/><circle cx="495" cy="710" r="5" fill="#1e293b"/>
    <line x1="495" y1="690" x2="495" y2="700" stroke="#334155" stroke-width="1.5" marker-end="url(#arr2)"/>
</svg>
