<svg xmlns="http://www.w3.org/2000/svg" viewBox="0 0 900 650" width="100%" height="100%">
    <defs>
        <marker id="arrow" viewBox="0 0 10 10" refX="10" refY="5" markerWidth="6" markerHeight="6" orient="auto-start-reverse">
            <path d="M 0 0 L 10 5 L 0 10 z" fill="#334155" />
        </marker>
    </defs>
    <style>
        .title { font-family: 'Arial', sans-serif; font-size: 16px; font-weight: bold; fill: #0f172a; text-anchor: middle; }
        .actor-text { font-family: 'Arial', sans-serif; font-size: 11px; font-weight: bold; fill: #0f172a; text-anchor: middle; }
        .shape-uc { fill: #fafafa; stroke: #475569; stroke-width: 1.5; }
        .boundary { fill: none; stroke: #64748b; stroke-width: 1.5; stroke-dasharray: 6 4; }
        .connection { fill: none; stroke: #475569; stroke-width: 1.2; }
    </style>
    <text x="450" y="30" class="title">1. DIAGRAM ROLÍ A FUNKCÍ (USE CASE) - FOOSLIB</text>
    <rect x="200" y="50" width="660" height="560" class="boundary"/>
    <text x="215" y="75" font-family="Arial" font-size="14" font-weight="bold" fill="#64748b">Systém FoosLib</text>
    
    <g transform="translate(80,130)">
        <circle cx="0" cy="-25" r="10" fill="#ffffff" stroke="#334155" stroke-width="1.5"/>
        <line x1="0" y1="-15" x2="0" y2="10" stroke="#334155" stroke-width="1.5"/>
        <line x1="-15" y1="-5" x2="15" y2="-5" stroke="#334155" stroke-width="1.5"/>
        <line x1="0" y1="10" x2="-12" y2="30" stroke="#334155" stroke-width="1.5"/>
        <line x1="0" y1="10" x2="12" y2="30" stroke="#334155" stroke-width="1.5"/>
        <text x="0" y="45" class="actor-text">Divák</text>
    </g>
    
    <g transform="translate(80,270)">
        <circle cx="0" cy="-25" r="10" fill="#ffffff" stroke="#334155" stroke-width="1.5"/>
        <line x1="0" y1="-15" x2="0" y2="10" stroke="#334155" stroke-width="1.5"/>
        <line x1="-15" y1="-5" x2="15" y2="-5" stroke="#334155" stroke-width="1.5"/>
        <line x1="0" y1="10" x2="-12" y2="30" stroke="#334155" stroke-width="1.5"/>
        <line x1="0" y1="10" x2="12" y2="30" stroke="#334155" stroke-width="1.5"/>
        <text x="0" y="45" class="actor-text">Hráč (Student)</text>
    </g>
    
    <g transform="translate(80,450)">
        <circle cx="0" cy="-25" r="10" fill="#ffffff" stroke="#334155" stroke-width="1.5"/>
        <line x1="0" y1="-15" x2="0" y2="10" stroke="#334155" stroke-width="1.5"/>
        <line x1="-15" y1="-5" x2="15" y2="-5" stroke="#334155" stroke-width="1.5"/>
        <line x1="0" y1="10" x2="-12" y2="30" stroke="#334155" stroke-width="1.5"/>
        <line x1="0" y1="10" x2="12" y2="30" stroke="#334155" stroke-width="1.5"/>
        <text x="0" y="45" class="actor-text">Administrátor</text>
    </g>
    
    <ellipse cx="400" cy="130" rx="120" ry="25" class="shape-uc"/>
    <text x="400" y="134" font-family="Arial" font-size="11" text-anchor="middle">Prohlížení žebříčků a feedu</text>
    <ellipse cx="400" cy="230" rx="120" ry="25" class="shape-uc"/>
    <text x="400" y="234" font-family="Arial" font-size="11" text-anchor="middle">Záznam odehraného zápasu</text>
    <ellipse cx="400" cy="330" rx="120" ry="25" class="shape-uc"/>
    <text x="400" y="334" font-family="Arial" font-size="11" text-anchor="middle">Správa osobního profilu</text>
    <ellipse cx="400" cy="450" rx="120" ry="25" class="shape-uc"/>
    <text x="400" y="454" font-family="Arial" font-size="11" text-anchor="middle">Administrátorská konzole</text>
    <ellipse cx="700" cy="230" rx="120" ry="25" class="shape-uc"/>
    <text x="700" y="234" font-family="Arial" font-size="11" text-anchor="middle">Dvoufázové ověření výsledku</text>
    
    <line x1="140" y1="130" x2="280" y2="130" class="connection"/>
    <line x1="140" y1="270" x2="280" y2="230" class="connection"/>
    <line x1="140" y1="270" x2="280" y2="330" class="connection"/>
    <line x1="140" y1="450" x2="280" y2="450" class="connection"/>
    
    <line x1="520" y1="230" x2="580" y2="230" stroke="#475569" stroke-dasharray="4 3" marker-end="url(#arrow)"/>
    <text x="550" y="220" font-family="Arial" font-size="11" text-anchor="middle">&lt;&lt;include&gt;&gt;</text>
</svg>